<?xml version="1.0" encoding="utf-8"?>
<!-- Generator: Adobe Illustrator 22.0.1, SVG Export Plug-In . SVG Version: 6.00 Build 0)  -->
<svg version="1.1" id="Layer_1" xmlns="http://www.w3.org/2000/svg" xmlns:xlink="http://www.w3.org/1999/xlink" x="0px" y="0px"
	 viewBox="0 0 528.8 405.8" style="enable-background:new 0 0 528.8 405.8;" xml:space="preserve">
<style type="text/css">
	.st0{display:none;}
	.st1{display:inline;fill:#FF6F90;}
	.st2{fill:none;stroke:#7278B2;stroke-width:30;stroke-miterlimit:10;}
	.st3{fill:none;stroke:#93F4FD;stroke-width:30;stroke-miterlimit:10;}
	.st4{fill:none;stroke:#042B57;stroke-width:30;stroke-miterlimit:10;}
	.st5{fill:none;stroke:#F1BF98;stroke-width:30;stroke-miterlimit:10;}
	.st6{fill:none;stroke:#042B57;stroke-miterlimit:10;}
	.st7{fill:#7278B2;stroke:#042B57;stroke-miterlimit:10;}
	.st8{fill:#F1BF98;stroke:#042B57;stroke-miterlimit:10;}
	.st9{fill:#042B57;stroke:#042B57;stroke-miterlimit:10;}
	.st10{fill:#93F4FD;stroke:#042B57;stroke-miterlimit:10;}
	.st11{fill:#FF6F90;stroke:#042B57;stroke-miterlimit:10;}
	.st12{fill:#042B57;}
	.st13{font-family:'Roboto-Light';}
	.st14{font-size:30px;}
	.st15{fill:#93F4FD;}
	.st16{fill:none;}
	.st17{fill:#FDCDE9;}
	.st18{fill:#F6B3D1;}
	.st19{fill:#E5F4FD;}
</style>
<g id="bg" class="st0">
	<rect x="-80" y="-135" class="st1" width="672" height="672"/>
</g>
<g id="rob1">
</g>
<g id="rob2">
</g>
<g id="dbtl">
	<g>
		<path class="st2" d="M321.5,295.5c-48.6,48.6-127.4,48.6-176,0"/>
		<path class="st3" d="M321.5,119.5c48.6,48.6,48.6,127.4,0,176"/>
		<path class="st4" d="M145.5,119.5c48.6-48.6,127.4-48.6,176,0"/>
		<path class="st5" d="M145.5,295.5c-48.6-48.6-48.6-127.4,0-176"/>
	</g>
	<g>
		<g>
			<path class="st6" d="M233.5,346.9c-35.7,0-71.4-13.6-98.6-40.8l21.2-21.2c42.7,42.7,112.1,42.7,154.8,0l21.2,21.2
				C304.9,333.3,269.2,346.9,233.5,346.9z"/>
		</g>
		<g>
			<path class="st6" d="M332.1,306.1l-21.2-21.2c42.7-42.7,42.7-112.1,0-154.8l21.2-21.2C386.5,163.3,386.5,251.7,332.1,306.1z"/>
		</g>
		<g>
			<path class="st6" d="M156.1,130.1l-21.2-21.2c26.3-26.3,61.4-40.8,98.6-40.8s72.3,14.5,98.6,40.8l-21.2,21.2
				C290.2,109.4,262.7,98,233.5,98S176.8,109.4,156.1,130.1z"/>
		</g>
		<g>
			<path class="st6" d="M134.9,306.1c-26.3-26.3-40.8-61.4-40.8-98.6s14.5-72.3,40.8-98.6l21.2,21.2c-20.7,20.7-32.1,48.2-32.1,77.4
				s11.4,56.7,32.1,77.4L134.9,306.1z"/>
		</g>
	</g>
	<g>
		<g>
			<polygon class="st7" points="139.2,325.2 125.3,273.4 177.1,287.3 			"/>
		</g>
		<g>
			<polygon class="st8" points="115.8,113.2 167.6,99.3 153.7,151.1 			"/>
		</g>
		<g>
			<polygon class="st9" points="327.8,89.8 341.7,141.6 289.9,127.7 			"/>
		</g>
		<g>
			<polygon class="st10" points="351.2,301.8 299.4,315.7 313.3,263.9 			"/>
		</g>
	</g>
	<g>
		<path class="st10" d="M332.1,108.9l-21.2,21.2c38.7,38.7,42.3,99.4,10.8,142.2l-8.4-8.4l-13.9,51.8l51.8-13.9l-8.1-8.1
			C386.2,239,382.5,159.3,332.1,108.9z"/>
		<path class="st8" d="M341.7,141.6l-13.9-51.8l-8.1,8.1c-24.5-19.3-54.6-29.8-86.2-29.8c-37.2,0-72.3,14.5-98.6,40.8l21.2,21.2
			c20.7-20.7,48.2-32.1,77.4-32.1c23.6,0,46.2,7.5,64.8,21.2l-8.4,8.4L341.7,141.6z"/>
		<path class="st9" d="M145.3,142.7l8.4,8.4l13.9-51.8l-51.8,13.9l8.1,8.1c-19.3,24.5-29.8,54.6-29.8,86.2
			c0,37.2,14.5,72.3,40.8,98.6l21.2-21.2c-20.7-20.7-32.1-48.2-32.1-77.4C124,183.9,131.5,161.3,145.3,142.7z"/>
		<path class="st11" d="M332.1,306.1l-21.2-21.2c-38.7,38.7-99.4,42.3-142.2,10.8l8.4-8.4l-51.8-13.9l13.9,51.8l8.1-8.1
			c25.2,19.9,55.7,29.8,86.2,29.8C269.2,346.9,304.9,333.3,332.1,306.1z"/>
		<path class="st10" d="M329.7,259.8c-2.3,4.3-5,8.5-8,12.5l-8.4-8.4l-13.9,51.8l51.8-13.9l-8.1-8.1c5.3-6.7,9.9-13.8,13.8-21.2"/>
	</g>
</g>
<g id="text">
	<text transform="matrix(1 0 0 1 405.8496 212.584)" class="st12 st13 st14">Build</text>
	<text transform="matrix(1 0 0 1 172.8496 386.584)" class="st12 st13 st14">Test</text>
	<text transform="matrix(1 0 0 1 11.9043 141.584)" class="st12 st13 st14">Learn</text>
	<text transform="matrix(1 0 0 1 249.6738 50.584)" class="st12 st13 st14">Design</text>
</g>
<g id="Soap">
	<g>
		<g>
			<path class="st15" d="M444.9,62.7c-2.6-2.1-6.8-2.5-9.5-1c-2.1,1.2-2.6,3.3-1.5,5.2c-0.1,0-0.1,0.1-0.2,0.1
				c-0.8,0.5-1.4,1.1-1.7,1.7c-1.8-0.3-3.7-0.1-5.1,0.7c-2.4,1.4-2.5,4.1-0.2,5.9c0.3,0.2,0.6,0.4,0.9,0.6c-0.2,0.6,0,1.4,0.7,2
				c1.1,0.9,2.9,1.1,4.1,0.4c0.6-0.4,0.9-0.9,0.9-1.4c0.7-0.1,1.4-0.4,2-0.7c0.5-0.3,0.9-0.7,1.2-1.1c0.3,0.1,0.6,0.1,0.8,0.2
				c-0.1,0.5,0.1,1.1,0.7,1.6c1,0.8,2.7,1,3.7,0.4c0.9-0.5,1.1-1.5,0.4-2.3c0.3-0.1,0.6-0.3,0.9-0.4c2.1-1.2,2.6-3.3,1.5-5.2
				c0.1,0,0.1-0.1,0.2-0.1C447.4,67.8,447.5,64.8,444.9,62.7z"/>
			<path d="M430.8,79.4c-1,0-2-0.3-2.8-0.9c-0.7-0.6-1.1-1.4-1-2.1c-0.2-0.1-0.4-0.3-0.6-0.4c-1.3-1-2-2.4-1.9-3.7
				c0.1-1.2,0.8-2.3,2.1-3.1c1.4-0.8,3.2-1.1,5.1-0.8c0.4-0.6,0.8-1,1.5-1.4c-0.4-0.9-0.5-1.8-0.3-2.7c0.3-1.1,1-2.1,2.2-2.7
				c2.8-1.7,7.4-1.2,10.1,1c1.4,1.2,2.2,2.7,2.1,4.1c-0.1,1.3-0.8,2.4-2.1,3.2c0.4,0.9,0.5,1.8,0.3,2.7c-0.3,1.1-1,2.1-2.2,2.7
				c-0.1,0.1-0.3,0.1-0.4,0.2c0.2,0.4,0.2,0.7,0.2,1.1c-0.1,0.6-0.5,1.1-1,1.4c-1.2,0.7-3.1,0.5-4.3-0.4c-0.6-0.4-0.9-1-0.9-1.6
				h-0.1c-0.3,0.3-0.7,0.7-1.1,0.9c-0.5,0.3-1.1,0.5-1.8,0.7c-0.1,0.6-0.5,1.1-1.1,1.4C432.2,79.2,431.5,79.4,430.8,79.4z
				 M430.4,69.2c-1.2,0-2.3,0.3-3.2,0.8c-1,0.6-1.5,1.4-1.6,2.2c-0.1,1,0.5,2,1.5,2.8c0.2,0.2,0.5,0.4,0.8,0.6l0.4,0.2l-0.2,0.4
				c-0.2,0.4,0,1,0.5,1.4c0.9,0.8,2.5,0.9,3.5,0.4c0.4-0.2,0.6-0.6,0.6-1v-0.4l0.4-0.1c0.7-0.1,1.3-0.3,1.8-0.7
				c0.4-0.3,0.8-0.6,1.1-0.9l0.2-0.3l0.3,0.1c0.3,0.1,0.5,0.1,0.8,0.2l0.5,0.1l-0.1,0.5c-0.1,0.4,0.1,0.8,0.5,1.1
				c0.8,0.7,2.3,0.8,3.1,0.3c0.3-0.2,0.5-0.4,0.5-0.7s-0.1-0.6-0.3-0.8l-0.5-0.6l0.7-0.3c0.3-0.1,0.6-0.2,0.8-0.4
				c0.9-0.5,1.5-1.3,1.7-2.1s0-1.6-0.4-2.4l-0.3-0.5l0.5-0.3c0.1,0,0.1-0.1,0.2-0.1c1.1-0.6,1.7-1.5,1.8-2.6s-0.5-2.3-1.7-3.2
				c-2.4-2-6.4-2.4-8.9-0.9c-0.9,0.5-1.5,1.3-1.7,2.1c-0.2,0.8,0,1.6,0.4,2.4l0.3,0.5l-0.5,0.3c-0.1,0-0.1,0.1-0.2,0.1
				c-0.7,0.4-1.2,0.9-1.5,1.5l-0.2,0.3l-0.4-0.1C431.5,69.2,430.9,69.2,430.4,69.2z"/>
		</g>
		<g>
			<g>
				<polygon points="409.1,99 408.6,98.1 424.8,88.6 430.4,89.1 454.3,75.1 454.9,76 430.6,90.2 425.1,89.6 				"/>
			</g>
			<g>
				<rect x="408" y="90.5" transform="matrix(0.8633 -0.5047 0.5047 0.8633 13.4818 231.6875)" width="52.9" height="1"/>
			</g>
			<g>
				<polygon points="424.8,101.1 424.3,100.2 429.7,97 430,93.4 431,93.5 430.7,97.6 				"/>
			</g>
			<g>
				<polygon points="430.3,101.6 429.8,100.7 438.1,95.9 438.1,92.1 459.7,79.5 460.2,80.3 439.1,92.7 439.1,96.5 				"/>
			</g>
			<g>
				<polygon points="416.8,90.6 416.3,89.7 427.7,83.1 433.2,83.7 451.6,72.9 452.1,73.8 433.5,84.7 427.9,84.2 				"/>
			</g>
			<g>
				<line class="st16" x1="424.8" y1="93" x2="430.5" y2="89.6"/>
				<rect x="424.4" y="90.8" transform="matrix(0.8633 -0.5047 0.5047 0.8633 12.4108 228.3318)" width="6.6" height="1"/>
			</g>
			<g>
				<line class="st16" x1="444.3" y1="89.1" x2="444.1" y2="92.9"/>
				
					<rect x="442.3" y="90.5" transform="matrix(3.417695e-02 -0.9994 0.9994 3.417695e-02 338.0146 531.8392)" width="3.8" height="1"/>
			</g>
			<g>
				<g>
					<path class="st15" d="M407.4,98.3c0.4-0.2,1-0.2,1.3,0.1c0.4,0.3,0.4,0.7,0,0.9s-1,0.2-1.3-0.1C407,99,407.1,98.6,407.4,98.3z"
						/>
					<path d="M408.2,100.1c-0.4,0-0.8-0.1-1.1-0.4c-0.3-0.3-0.5-0.6-0.5-1c0-0.3,0.2-0.6,0.5-0.8c0.6-0.3,1.4-0.3,1.9,0.2
						c0.3,0.3,0.5,0.6,0.5,1c0,0.3-0.2,0.6-0.5,0.8C408.8,100,408.5,100.1,408.2,100.1z M407.7,98.8L407.7,98.8
						c0.3,0.2,0.6,0.3,0.8,0.2l0,0c0,0,0,0-0.1-0.1C408.3,98.7,407.9,98.7,407.7,98.8L407.7,98.8z"/>
				</g>
				<g>
					<path class="st15" d="M423.2,100.5c0.4-0.2,1-0.2,1.3,0.1c0.4,0.3,0.4,0.7,0,0.9s-1,0.2-1.3-0.1
						C422.8,101.2,422.8,100.7,423.2,100.5z"/>
					<path d="M424,102.2c-0.4,0-0.8-0.1-1.1-0.4c-0.3-0.3-0.5-0.6-0.5-1c0-0.3,0.2-0.6,0.5-0.8l0,0c0.6-0.3,1.4-0.3,1.9,0.2
						c0.3,0.3,0.5,0.6,0.5,1c0,0.3-0.2,0.6-0.5,0.8C424.6,102.2,424.3,102.2,424,102.2z M423.4,101C423.5,101,423.5,101,423.4,101
						c0.3,0.2,0.6,0.3,0.8,0.2l0,0c0,0,0,0-0.1-0.1C424,100.9,423.7,100.8,423.4,101L423.4,101C423.5,101,423.5,101,423.4,101z"/>
				</g>
				<g>
					<path class="st15" d="M428.8,101.1c0.4-0.2,1-0.2,1.3,0.1c0.4,0.3,0.4,0.7,0,0.9s-1,0.2-1.3-0.1S428.4,101.3,428.8,101.1z"/>
					<path d="M429.5,102.8c-0.4,0-0.8-0.1-1.1-0.4c-0.3-0.3-0.5-0.6-0.5-1c0-0.3,0.2-0.6,0.5-0.8c0.6-0.3,1.4-0.3,1.9,0.2
						c0.3,0.3,0.5,0.6,0.5,1c0,0.3-0.2,0.6-0.5,0.8C430.1,102.7,429.8,102.8,429.5,102.8z M429,101.5C429,101.6,429,101.6,429,101.5
						c0.3,0.2,0.6,0.3,0.8,0.2l0,0c0,0,0,0-0.1-0.1C429.6,101.4,429.2,101.4,429,101.5L429,101.5z"/>
				</g>
				<g>
					<path class="st15" d="M410.3,104.3c0.4-0.2,1-0.2,1.3,0.1c0.4,0.3,0.4,0.7,0,0.9s-1,0.2-1.3-0.1
						C409.9,104.9,409.9,104.5,410.3,104.3z"/>
					<path d="M411,106c-0.4,0-0.8-0.1-1.1-0.4c-0.3-0.3-0.5-0.6-0.5-1c0-0.3,0.2-0.6,0.5-0.8l0,0c0.6-0.3,1.4-0.3,1.9,0.2
						c0.3,0.3,0.5,0.6,0.5,1c0,0.3-0.2,0.6-0.5,0.8C411.6,105.9,411.3,106,411,106z M410.5,104.7
						C410.5,104.8,410.5,104.8,410.5,104.7c0.3,0.2,0.6,0.3,0.8,0.2l0,0c0,0,0,0-0.1-0.1C411.1,104.7,410.7,104.6,410.5,104.7
						L410.5,104.7L410.5,104.7z"/>
				</g>
				<g>
					<path class="st15" d="M415.2,90c0.4-0.2,1-0.2,1.3,0.1s0.4,0.7,0,0.9s-1,0.2-1.3-0.1C414.8,90.7,414.8,90.2,415.2,90z"/>
					<path d="M415.9,91.7c-0.4,0-0.8-0.1-1.1-0.4c-0.3-0.3-0.5-0.6-0.5-1c0-0.3,0.2-0.6,0.5-0.8c0.6-0.3,1.4-0.3,1.9,0.2
						c0.3,0.3,0.5,0.6,0.5,1c0,0.3-0.2,0.6-0.5,0.8C416.5,91.7,416.2,91.7,415.9,91.7z M415.4,90.5L415.4,90.5
						c0.3,0.2,0.6,0.3,0.8,0.2l0,0c0,0,0,0-0.1-0.1C416,90.4,415.6,90.3,415.4,90.5L415.4,90.5z"/>
				</g>
				<g>
					<path class="st15" d="M423.4,92.8c0.4-0.2,1-0.2,1.3,0.1c0.4,0.3,0.4,0.7,0,0.9s-1,0.2-1.3-0.1S423.1,93,423.4,92.8z"/>
					<path d="M424.2,94.5c-0.4,0-0.8-0.1-1.1-0.4c-0.3-0.3-0.5-0.6-0.5-1c0-0.3,0.2-0.6,0.5-0.8c0.6-0.3,1.4-0.3,1.9,0.2
						c0.3,0.3,0.5,0.6,0.5,1c0,0.3-0.2,0.6-0.5,0.8C424.8,94.4,424.5,94.5,424.2,94.5z M423.7,93.2
						C423.7,93.3,423.7,93.3,423.7,93.2c0.3,0.2,0.6,0.3,0.8,0.2l0,0c0,0,0,0-0.1-0.1C424.3,93.2,423.9,93.1,423.7,93.2L423.7,93.2
						L423.7,93.2z"/>
				</g>
				<g>
					<path class="st15" d="M432.7,83.6c0.4-0.2,1-0.2,1.3,0.1c0.4,0.3,0.4,0.7,0,0.9s-1,0.2-1.3-0.1
						C432.3,84.2,432.3,83.8,432.7,83.6z"/>
					<path d="M433.5,85.3c-0.4,0-0.8-0.1-1.1-0.4c-0.3-0.3-0.5-0.6-0.5-1c0-0.3,0.2-0.6,0.5-0.8l0,0c0.6-0.3,1.4-0.3,1.9,0.2
						c0.3,0.3,0.5,0.6,0.5,1c0,0.3-0.2,0.6-0.5,0.8C434,85.2,433.7,85.3,433.5,85.3z M432.9,84C432.9,84.1,432.9,84.1,432.9,84
						c0.3,0.2,0.6,0.3,0.8,0.2l0,0c0,0,0,0-0.1-0.1C433.5,83.9,433.1,83.9,432.9,84L432.9,84L432.9,84z"/>
				</g>
				<g>
					<path class="st15" d="M443.5,92.5c0.4-0.2,1-0.2,1.3,0.1c0.4,0.3,0.4,0.7,0,0.9s-1,0.2-1.3-0.1
						C443.1,93.1,443.1,92.7,443.5,92.5z"/>
					<path d="M444.2,94.2c-0.4,0-0.8-0.1-1.1-0.4c-0.3-0.3-0.5-0.6-0.5-1c0-0.3,0.2-0.6,0.5-0.8c0.6-0.3,1.4-0.3,1.9,0.2
						c0.3,0.3,0.5,0.6,0.5,1c0,0.3-0.2,0.6-0.5,0.8C444.8,94.1,444.5,94.2,444.2,94.2z M443.7,92.9C443.7,93,443.7,93,443.7,92.9
						c0.3,0.2,0.6,0.3,0.8,0.2l0,0c0,0,0,0-0.1-0.1C444.3,92.8,443.9,92.8,443.7,92.9L443.7,92.9z"/>
				</g>
			</g>
		</g>
		<g>
			<path class="st17" d="M445.5,74.8c1.6,1.3,13.4,6.8,15.2,7.4c1.8,0.5,3.9,0,5.6-0.7c1.8-0.7,10.7-5,14-6.9
				c3.2-1.9,6.5-3.9,9.2-5.8c2.7-1.9,3.9-2.2,3.9-5.6c0-3.4,0.5-4.8,0.5-7.4s0.2-3.2-2.3-4.3c-2.4-1.2-6.1-2.5-9.5-3.5
				s-5.6-1.1-7.3-1.1S465,50,461.1,52s-10.9,3.6-14.7,6.3c-2.1,1.5-2.6,1.8-2.6,4.2c0,4.1-0.1,5.4,0.1,7S444.1,73.7,445.5,74.8z"/>
		</g>
		<g>
			<g>
				<path d="M469.3,75.4c-0.2,0.1-0.3,0.1-0.4,0c-0.1-0.1-0.2-0.2-0.2-0.3c0-2.3,0-4.6,0-6.9c0-0.2,0.1-0.3,0.2-0.5
					c0.1-0.1,0.3-0.2,0.4-0.3c0.2-0.1,0.3,0,0.4,0c0.1,0.1,0.2,0.2,0.2,0.3c0,2.1,0,4.2,0,6.3c0.8-0.3,1.7-0.7,2.5-1
					c0.2-0.1,0.3-0.1,0.4,0c0.1,0.1,0.2,0.2,0.2,0.3s-0.1,0.3-0.2,0.5c-0.1,0.2-0.3,0.3-0.4,0.3C471.3,74.6,470.3,75,469.3,75.4z"/>
			</g>
			<g>
				<path d="M480.6,69.4c0,0,0,0.1,0,0.2c0,0.1,0,0.3-0.1,0.4c-0.1,0.2-0.2,0.3-0.4,0.4c-0.1,0.1-0.2,0.1-0.3,0.1s-0.2-0.1-0.2-0.1
					c-0.2-0.3-0.4-0.7-0.5-1c-1.1,0.6-2.2,1.1-3.4,1.7c-0.2,0.5-0.4,1-0.6,1.6c0,0.1-0.1,0.2-0.2,0.3c-0.1,0.1-0.2,0.2-0.3,0.3
					c-0.2,0.1-0.3,0.1-0.4,0c-0.1-0.1-0.2-0.2-0.2-0.3s0-0.2,0-0.2c0.4-1.3,0.9-2.6,1.4-3.9c0.5-1.4,0.9-2.7,1.4-3.9
					c0.1-0.1,0.1-0.2,0.2-0.3c0.1-0.1,0.2-0.2,0.3-0.3c0.1,0,0.2-0.1,0.3,0c0.1,0,0.2,0.1,0.2,0.1C478.7,66,479.6,67.7,480.6,69.4z
					 M478.5,68.5c-0.4-0.8-0.8-1.5-1.2-2.3c-0.4,1.2-0.8,2.3-1.2,3.5C476.9,69.3,477.7,68.9,478.5,68.5z"/>
			</g>
			<g>
				<path d="M485.8,62.9c0.3,0,0.6,0.1,0.7,0.3c0.2,0.2,0.3,0.5,0.3,0.9c0,0.3-0.1,0.7-0.2,1.1c-0.1,0.4-0.3,0.7-0.5,1
					s-0.5,0.6-0.7,0.9c-0.3,0.3-0.5,0.5-0.8,0.6c-0.8,0.5-1.6,1-2.4,1.4c-0.2,0.1-0.3,0.1-0.4,0.1c-0.1,0-0.2-0.1-0.2-0.3
					c0-2.1,0-4.3,0-6.4c0-0.1,0.1-0.3,0.2-0.5c0.1-0.2,0.2-0.3,0.4-0.4c0.6-0.3,1.3-0.7,1.9-1c0,0,0.1-0.1,0.3-0.2
					c0.2-0.1,0.4-0.1,0.7-0.2c0.7-0.1,1.1,0.3,1.1,1c0,0.2,0,0.4-0.1,0.7c-0.1,0.2-0.1,0.4-0.3,0.7
					C485.8,62.8,485.8,62.8,485.8,62.9z M482.7,64.3c0.4-0.2,0.8-0.4,1.1-0.6c0.1,0,0.1-0.1,0.3-0.2c0.1-0.1,0.3-0.2,0.4-0.3
					c0.1-0.1,0.2-0.3,0.3-0.5s0.2-0.4,0.2-0.6c0-0.2,0-0.3-0.1-0.4c-0.1-0.1-0.2-0.1-0.2-0.1c-0.1,0-0.2,0-0.3,0.1
					c-0.1,0-0.2,0.1-0.2,0.1c-0.5,0.3-0.9,0.5-1.4,0.8C482.7,63.1,482.7,63.7,482.7,64.3z M485.1,66.2c0.1-0.1,0.2-0.3,0.3-0.4
					c0.1-0.1,0.1-0.3,0.2-0.4c0-0.1,0.1-0.2,0.1-0.3s0-0.2,0-0.3s0-0.2-0.1-0.3c0-0.1-0.1-0.2-0.2-0.3c-0.1-0.1-0.2-0.1-0.4-0.1
					s-0.4,0.1-0.6,0.2c-0.6,0.3-1.2,0.7-1.8,1c0,0.8,0,1.6,0,2.4c0.6-0.3,1.2-0.7,1.8-1c0,0,0.1-0.1,0.2-0.2
					C484.8,66.5,485,66.4,485.1,66.2z"/>
			</g>
		</g>
		<g>
			<g>
				<path d="M457.8,60.3c0.1,0,0.2,0,0.3-0.1c0.2,0,0.4-0.1,0.6-0.1c0.2,0,0.5-0.1,0.7-0.1c0.3,0,0.5-0.1,0.8-0.1s0.6,0,0.9,0
					c0.3,0,0.5,0.1,0.8,0.2h0.1c0.3,0.1,0.5,0.2,0.7,0.4s0.3,0.3,0.3,0.5s-0.1,0.4-0.2,0.6c-0.2,0.2-0.4,0.4-0.7,0.5H462
					c-0.4,0.2-0.9,0.3-1.4,0.4c-0.5,0.1-1.1,0.1-1.7,0c-0.1,0-0.2,0-0.3-0.1c-0.1,0-0.2-0.1-0.2-0.1c0-0.1,0-0.1,0-0.2l0.1-0.1
					c0.1,0,0.2-0.1,0.3-0.1s0.3,0,0.4,0c0.3,0,0.6,0,0.9,0c0.3,0,0.6-0.1,0.8-0.2l0,0c0.4-0.2,0.6-0.4,0.5-0.6
					c0-0.2-0.2-0.4-0.5-0.5l0,0c-0.2,0-0.3-0.1-0.6-0.1c-0.2,0-0.5,0-0.7,0s-0.5,0.1-0.7,0.1s-0.4,0.1-0.5,0.1l0,0l0,0
					c-1.3,0.3-2.4,0.3-3.4,0h-0.1c-0.3-0.1-0.4-0.2-0.6-0.4c-0.1-0.1-0.2-0.3-0.1-0.5c0-0.1,0.1-0.3,0.2-0.4
					c0.1-0.1,0.3-0.3,0.6-0.4h0.1c0.2-0.1,0.4-0.2,0.7-0.2c0.3-0.1,0.6-0.1,0.9-0.2c0.1,0,0.2,0,0.3,0s0.2,0,0.3,0.1
					s0.2,0.1,0.2,0.2c0,0.1,0,0.2-0.2,0.3c0,0-0.1,0-0.2,0.1c-0.1,0-0.1,0-0.2,0c-0.1,0-0.3,0-0.4,0.1c-0.1,0-0.3,0.1-0.4,0.1
					c0,0,0,0-0.1,0c-0.3,0.1-0.4,0.3-0.5,0.4c0,0.1,0.1,0.3,0.3,0.4l0,0c0.2,0.1,0.3,0.1,0.5,0.1c0.1,0,0.3,0,0.4,0
					c0.1,0,0.3,0,0.5-0.1C457.4,60.4,457.6,60.3,457.8,60.3C457.7,60.3,457.7,60.3,457.8,60.3z"/>
			</g>
			<g>
				<path d="M468.7,59.1c-0.5,0.2-1,0.4-1.7,0.5c-0.6,0.1-1.3,0.2-1.9,0.2c-0.6,0-1.3,0-1.9-0.1c-0.6-0.1-1.2-0.2-1.7-0.4
					s-0.9-0.4-1.2-0.7s-0.4-0.5-0.5-0.8c0-0.3,0.1-0.5,0.3-0.8s0.6-0.5,1.1-0.7s1-0.4,1.7-0.5c0.6-0.1,1.3-0.2,2-0.2s1.3,0,2,0.1
					c0.6,0.1,1.2,0.2,1.8,0.4c0.5,0.2,0.9,0.4,1.2,0.7c0.3,0.2,0.4,0.5,0.4,0.8s-0.1,0.5-0.4,0.8C469.5,58.7,469.1,58.9,468.7,59.1z
					 M462.2,56.7c-0.3,0.1-0.6,0.3-0.7,0.5c-0.2,0.2-0.2,0.4-0.2,0.6c0,0.2,0.1,0.4,0.3,0.6c0.2,0.2,0.5,0.3,0.9,0.5
					c0.4,0.1,0.8,0.2,1.2,0.3s0.9,0.1,1.4,0.1s0.9,0,1.3-0.1c0.4-0.1,0.8-0.2,1.2-0.3s0.6-0.3,0.8-0.5s0.2-0.4,0.2-0.5
					c0-0.2-0.1-0.4-0.3-0.5c-0.2-0.2-0.5-0.3-0.8-0.5c-0.4-0.1-0.8-0.2-1.2-0.3c-0.5-0.1-0.9-0.1-1.4-0.1s-0.9,0-1.4,0.1
					C463,56.4,462.6,56.5,462.2,56.7z"/>
			</g>
			<g>
				<path d="M478.3,54.9c0.1,0,0.2,0,0.2,0.1c0.1,0.1,0.2,0.1,0.2,0.2c0,0.1-0.1,0.1-0.3,0.2c-0.1,0-0.3,0.1-0.4,0.1
					c-0.2,0-0.3,0-0.5,0c-0.6-0.1-1.2-0.2-1.8-0.3c-1.1,0.4-2.3,0.8-3.4,1.2c0.2,0.2,0.5,0.5,0.7,0.7c0,0,0,0.1,0,0.2
					c0,0.1-0.1,0.1-0.2,0.2c-0.2,0.1-0.4,0.1-0.6,0.1c-0.2,0-0.4,0-0.5-0.1c-0.1,0-0.1-0.1-0.2-0.1c-0.6-0.6-1.3-1.1-1.9-1.7
					c-0.6-0.6-1.3-1.2-1.9-1.7c0-0.1,0-0.1,0-0.2c0-0.1,0.1-0.1,0.2-0.2c0.1,0,0.2-0.1,0.4-0.1s0.3,0,0.5,0
					C472.1,53.9,475.2,54.4,478.3,54.9z M474.2,54.9c-1.4-0.2-2.7-0.4-4.1-0.7c0.6,0.5,1.1,1,1.7,1.5
					C472.6,55.5,473.4,55.2,474.2,54.9z"/>
			</g>
			<g>
				<path d="M480.7,54.7c-0.2,0.1-0.4,0.1-0.6,0.1c-0.2,0-0.4,0-0.6-0.1c-2.2-0.8-4.4-1.7-6.6-2.5c-0.1-0.1-0.2-0.1-0.2-0.2
					c0-0.1,0.1-0.1,0.3-0.2c0.7-0.2,1.3-0.4,2-0.6c0,0,0.1,0,0.2,0c0.1,0,0.2-0.1,0.4-0.1c0.1,0,0.3-0.1,0.5-0.1s0.4-0.1,0.6-0.1
					c0.7-0.1,1.3,0,2,0c0.6,0.1,1.2,0.2,1.7,0.4c0,0,0.1,0,0.1,0.1c0.1,0,0.2,0.1,0.2,0.1c0.1,0.1,0.2,0.1,0.3,0.2
					c0.1,0.1,0.2,0.1,0.2,0.2l0,0c0.2,0.2,0.2,0.5-0.1,0.7c-0.2,0.2-0.6,0.4-1.2,0.6c-0.5,0.1-0.9,0.3-1.4,0.4
					c0.7,0.3,1.4,0.5,2.1,0.8c0.1,0.1,0.2,0.1,0.2,0.2C481,54.6,480.9,54.6,480.7,54.7z M477.6,53.1c0.5-0.1,0.9-0.3,1.4-0.4
					c0.6-0.2,0.9-0.4,0.8-0.7c0,0-0.1-0.1-0.2-0.1c-0.1,0-0.1-0.1-0.2-0.1c-0.1,0-0.1-0.1-0.1-0.1h-0.1c-0.6-0.2-1.3-0.3-2-0.2
					c-0.2,0-0.3,0-0.4,0.1c-0.1,0-0.2,0-0.3,0.1c-0.1,0-0.2,0-0.3,0.1c-0.5,0.1-0.9,0.3-1.4,0.4C475.7,52.4,476.6,52.7,477.6,53.1z"
					/>
			</g>
		</g>
		<g>
			<path class="st18" d="M443.8,62.4c0,4.1-0.1,5.4,0.1,7s0.3,4.3,1.7,5.4c1.3,1,9.6,5,13.4,6.7c0,0-0.1-0.9,0.2-2
				c0.3-1.4,0.9-3.3,0.4-5.6c-0.8-4-3.2-3.9-6.5-5.4s-4.6-2.9-5.7-4C446.2,63.2,443.8,62.4,443.8,62.4z"/>
		</g>
		<g>
			<path d="M462.3,83.1c-0.6,0-1.2-0.1-1.8-0.3c-1.8-0.5-13.7-6.1-15.4-7.5l0,0c-1.6-1.3-1.8-3.9-2-5.7v-0.3c-0.1-1-0.1-1.9-0.1-3.3
				c0-0.9,0-2.1,0-3.7c0-2.8,0.8-3.4,2.9-4.8l0.1-0.1c2.3-1.6,5.7-2.8,9-4c2.2-0.8,4.2-1.5,5.8-2.3c3.7-1.9,12.1-5.2,14.1-5.2
				c1.7,0,3.9,0.1,7.5,1.1c3.4,1,7.1,2.3,9.7,3.6c2.6,1.2,2.7,2.1,2.7,4.5v0.5c0,1.3-0.1,2.2-0.2,3.3c-0.1,1.2-0.2,2.4-0.2,4.2
				c0,3.4-1.1,4.2-3.2,5.5c-0.3,0.2-0.6,0.4-1,0.7c-2.4,1.7-5.6,3.7-9.3,5.8c-3.3,1.9-12.3,6.3-14.1,7
				C465.3,82.7,463.8,83.1,462.3,83.1z M446,74.2c1.4,1.1,13.1,6.7,14.9,7.2c1.7,0.5,3.6-0.1,5.1-0.7c1.7-0.6,10.7-5,13.9-6.9
				c3.7-2.1,6.8-4.1,9.2-5.8c0.4-0.3,0.7-0.5,1-0.7c1.9-1.3,2.5-1.7,2.5-4.3c0-1.9,0.1-3.2,0.3-4.3c0.1-1,0.2-1.9,0.2-3.1v-0.5
				c0-2.1,0-2.3-1.8-3.1c-2.5-1.2-6.1-2.5-9.4-3.5c-3.4-1-5.4-1.1-7.1-1.1c-1.5,0-9.3,3-13.4,5c-1.6,0.8-3.7,1.6-5.9,2.4
				c-3.2,1.1-6.5,2.3-8.7,3.8l-0.1,0.1c-2,1.4-2.2,1.5-2.2,3.5c0,1.6,0,2.8,0,3.7c0,1.4,0,2.3,0.1,3.2v0.3
				C444.7,71,444.9,73.3,446,74.2L446,74.2z"/>
		</g>
		<g>
			<path class="st15" d="M417.9,83.6c0.5-0.3,1.3-0.2,1.8,0.2s0.5,1,0,1.2c-0.5,0.3-1.3,0.2-1.8-0.2
				C417.4,84.5,417.4,83.9,417.9,83.6z"/>
			<path d="M419,85.8c-0.5,0-1-0.2-1.4-0.5s-0.6-0.7-0.5-1.1c0-0.4,0.3-0.7,0.6-1l0,0c0.7-0.4,1.7-0.3,2.4,0.2
				c0.4,0.3,0.6,0.7,0.5,1.1c0,0.4-0.3,0.7-0.6,1C419.7,85.7,419.3,85.8,419,85.8z M418.2,84.1c0,0-0.1,0.1-0.1,0.2
				c0,0.1,0,0.1,0.2,0.3c0.3,0.3,0.9,0.3,1.2,0.1c0,0,0.1-0.1,0.1-0.2c0-0.1,0-0.1-0.2-0.3C419.1,84,418.5,83.9,418.2,84.1
				L418.2,84.1z"/>
		</g>
		<g>
			<path class="st15" d="M434.8,78.8c0.6-0.3,1.5-0.2,2.1,0.2c0.6,0.5,0.5,1.1,0,1.4c-0.6,0.3-1.5,0.2-2.1-0.2
				S434.2,79.2,434.8,78.8z"/>
			<path d="M436,81.2c-0.6,0-1.1-0.2-1.6-0.5c-0.4-0.3-0.6-0.8-0.6-1.2s0.3-0.8,0.7-1c0.8-0.4,1.9-0.3,2.7,0.3
				c0.4,0.3,0.6,0.8,0.6,1.2s-0.3,0.8-0.7,1C436.7,81.1,436.4,81.2,436,81.2z M435.6,79.2c-0.2,0-0.4,0-0.6,0.1
				c-0.1,0-0.2,0.1-0.2,0.2c0,0.1,0.1,0.2,0.2,0.4c0.4,0.3,1.1,0.4,1.5,0.2c0.1,0,0.2-0.1,0.2-0.2c0-0.1-0.1-0.2-0.2-0.4
				C436.3,79.3,435.9,79.2,435.6,79.2z"/>
		</g>
		<g>
			<path class="st15" d="M421.9,77.4c1.1-0.7,3-0.5,4.1,0.4s1.1,2.2-0.1,2.8c-1.1,0.7-3,0.5-4.1-0.4C420.7,79.3,420.7,78,421.9,77.4
				z"/>
			<path d="M424.2,81.5c-1,0-2-0.3-2.8-0.9c-0.7-0.6-1-1.3-1-2c0.1-0.7,0.5-1.3,1.1-1.7l0,0c1.3-0.8,3.4-0.6,4.7,0.5
				c0.7,0.6,1,1.3,1,2c-0.1,0.7-0.5,1.3-1.1,1.7C425.6,81.4,424.9,81.5,424.2,81.5z M423.5,77.5c-0.5,0-1,0.1-1.4,0.3l0,0
				c-0.4,0.2-0.6,0.5-0.6,0.9s0.2,0.8,0.6,1.1c0.9,0.8,2.5,0.9,3.5,0.4c0.4-0.2,0.6-0.5,0.6-0.9s-0.2-0.8-0.6-1.1
				C425.1,77.7,424.3,77.5,423.5,77.5z"/>
		</g>
		<g>
			<path class="st15" d="M468.9,81.2c-2.1-1.7-5.7-2.1-7.9-0.8c-1.7,1-2.2,2.7-1.3,4.3c-1.6-0.2-3.1,0-4.4,0.7
				c-0.9,0.5-1.5,1.3-1.7,2.1c-1-0.4-2.2-0.4-3.1,0.1c-1,0.6-1.1,1.6-0.5,2.4c-0.8,0-1.7,0.1-2.3,0.5c-1.4,0.8-1.5,2.4-0.1,3.5
				s3.6,1.3,5,0.5c1.3-0.8,1.5-2.2,0.4-3.3c0.5,0,1.1-0.2,1.5-0.4c0.1-0.1,0.2-0.1,0.3-0.2c0.1,0.1,0.2,0.2,0.3,0.3
				c2.1,1.7,5.7,2.1,7.9,0.8c1.7-1,2.2-2.7,1.3-4.3c1.5,0.2,3.1,0,4.4-0.7C471,85.4,471,82.9,468.9,81.2z"/>
			<path d="M450.7,95.6c-1.2,0-2.4-0.4-3.3-1.1c-0.8-0.7-1.2-1.5-1.2-2.4c0.1-0.8,0.5-1.5,1.3-2c0.5-0.3,1.1-0.5,1.7-0.5
				c-0.1-0.3-0.1-0.6,0-0.9c0.1-0.6,0.5-1.1,1.1-1.5c0.8-0.5,2-0.6,3-0.3c0.3-0.8,0.9-1.4,1.7-1.9c1-0.6,2.4-0.9,3.8-0.8
				c-0.2-0.6-0.2-1.2-0.1-1.8c0.2-0.9,0.9-1.7,1.9-2.3c2.4-1.4,6.2-1,8.5,0.8l0,0c1.2,1,1.8,2.3,1.7,3.5s-0.8,2.2-2,2.9
				c-1,0.6-2.4,0.9-3.8,0.8c0.2,0.6,0.2,1.2,0.1,1.8c-0.2,0.9-0.9,1.7-1.9,2.3c-2.4,1.4-6.2,1-8.5-0.8l0,0c-0.2,0.1-0.5,0.3-0.8,0.3
				c0.3,0.5,0.4,1,0.3,1.5c-0.1,0.8-0.6,1.4-1.3,1.9C452.3,95.4,451.5,95.6,450.7,95.6z M449.8,90.6c-0.7,0-1.3,0.1-1.8,0.4
				c-0.5,0.3-0.8,0.7-0.8,1.2s0.3,1.1,0.8,1.5c1.2,1,3.2,1.2,4.5,0.5c0.5-0.3,0.8-0.7,0.8-1.1c0.1-0.5-0.1-0.9-0.6-1.4l-0.8-0.8h1.2
				c0.5,0,0.9-0.1,1.3-0.3c0.1,0,0.2-0.1,0.2-0.2l0.4-0.3l0.3,0.3c0.1,0.1,0.2,0.2,0.3,0.2c2,1.6,5.3,2,7.4,0.8
				c0.7-0.4,1.2-1,1.4-1.7c0.2-0.6,0-1.3-0.3-1.9l-0.5-0.9l1.1,0.2c1.5,0.2,3,0,4-0.6c0.9-0.5,1.4-1.3,1.5-2.1
				c0.1-0.9-0.4-1.9-1.4-2.6c-2-1.6-5.3-2-7.4-0.8c-0.7,0.4-1.2,1-1.4,1.7c-0.2,0.6,0,1.3,0.3,1.9l0.5,0.9l-1.1-0.2
				c-1.5-0.2-3,0-4,0.6c-0.8,0.5-1.3,1.1-1.4,1.8l-0.1,0.6l-0.6-0.2c-0.9-0.3-2-0.3-2.7,0.1c-0.3,0.2-0.6,0.5-0.6,0.8
				c-0.1,0.3,0,0.6,0.3,0.9l0.7,0.9l-1.1-0.1C450,90.6,449.9,90.6,449.8,90.6z"/>
		</g>
		<g>
			<path class="st19" d="M448.6,91.9c0.3-0.2,0.8-0.1,1.1,0.1c0.3,0.2,0.3,0.6,0,0.7c-0.3,0.2-0.8,0.1-1.1-0.1
				C448.3,92.4,448.3,92.1,448.6,91.9z"/>
		</g>
		<g>
			<path class="st19" d="M461.5,83.2c0.3-0.2,0.8-0.1,1.1,0.1c0.3,0.2,0.3,0.6,0,0.7c-0.3,0.2-0.8,0.1-1.1-0.1
				S461.2,83.4,461.5,83.2z"/>
		</g>
		<g>
			<path class="st19" d="M422.4,78.6c0.3-0.2,0.8-0.1,1.1,0.1c0.3,0.2,0.3,0.6,0,0.7c-0.3,0.2-0.8,0.1-1.1-0.1
				C422.1,79.1,422.1,78.7,422.4,78.6z"/>
		</g>
		<g>
			<path class="st19" d="M438.7,75.1c0.3-0.2,0.8-0.1,1.1,0.1c0.3,0.2,0.3,0.6,0,0.7c-0.3,0.2-0.8,0.1-1.1-0.1
				S438.4,75.3,438.7,75.1z"/>
		</g>
		<g>
			<path class="st19" d="M429.5,76.4c0.3-0.2,0.8-0.1,1.1,0.1c0.3,0.2,0.3,0.6,0,0.7c-0.3,0.2-0.8,0.1-1.1-0.1
				S429.2,76.6,429.5,76.4z"/>
		</g>
		<g>
			<path class="st19" d="M456.2,88.1c0.3-0.2,0.8-0.1,1.1,0.1c0.3,0.2,0.3,0.6,0,0.7c-0.3,0.2-0.8,0.1-1.1-0.1
				S455.9,88.3,456.2,88.1z"/>
		</g>
		<g>
			<path class="st19" d="M436,63.3c0.3-0.2,0.8-0.1,1.1,0.1c0.3,0.2,0.3,0.6,0,0.7c-0.3,0.2-0.8,0.1-1.1-0.1
				C435.7,63.8,435.7,63.5,436,63.3z"/>
		</g>
		<g>
			<path class="st19" d="M435,68.1c0.3-0.2,0.8-0.1,1.1,0.1c0.3,0.2,0.3,0.6,0,0.7c-0.3,0.2-0.8,0.1-1.1-0.1S434.7,68.3,435,68.1z"
				/>
		</g>
		<g>
			<path class="st19" d="M427.9,72c0.3-0.2,0.8-0.1,1.1,0.1c0.3,0.2,0.3,0.6,0,0.7c-0.3,0.2-0.8,0.1-1.1-0.1S427.6,72.2,427.9,72z"
				/>
		</g>
		<g>
			<path class="st19" d="M451,88.7c0.3-0.2,0.8-0.1,1.1,0.1c0.3,0.2,0.3,0.6,0,0.7c-0.3,0.2-0.8,0.1-1.1-0.1
				C450.6,89.2,450.7,88.8,451,88.7z"/>
		</g>
	</g>
	<polyline class="st6" points="343.6,90.4 353.5,80.5 385.5,80.5 	"/>
	<g>
		<path class="st12" d="M452.5,8.5c36.4,0,66,29.6,66,66s-29.6,66-66,66s-66-29.6-66-66S416.1,8.5,452.5,8.5 M452.5,7.5
			c-37,0-67,30-67,67s30,67,67,67s67-30,67-67S489.5,7.5,452.5,7.5L452.5,7.5z"/>
	</g>
	<circle class="st6" cx="320" cy="121" r="38.5"/>
</g>
</svg>
