<?xml version="1.0" encoding="utf-8"?>
<!-- Generator: Adobe Illustrator 22.0.1, SVG Export Plug-In . SVG Version: 6.00 Build 0)  -->
<svg version="1.1" id="Layer_1" xmlns="http://www.w3.org/2000/svg" xmlns:xlink="http://www.w3.org/1999/xlink" x="0px" y="0px"
	 viewBox="0 0 342.9 174.8" style="enable-background:new 0 0 342.9 174.8;" xml:space="preserve">
<style type="text/css">
	.st0{fill:#93F4FD;stroke:#000000;stroke-miterlimit:10;}
	.st1{fill:#F1BF98;stroke:#000000;stroke-miterlimit:10;}
	.st2{fill:#FF6F90;stroke:#000000;stroke-miterlimit:10;}
</style>
<path class="st0" d="M208.5,135.4l-25-25L131,57.9c0,0,3.5,19.5,26.5,42.5s29.5,29.5,29.5,29.5l2.1,2.1"/>
<path class="st1" d="M200,126.4c-9.7,0-17.5,7.8-17.5,17.5s7.8,17.5,17.5,17.5s17.5-7.8,17.5-17.5S209.7,126.4,200,126.4z
	 M200,155.4c-6.4,0-11.5-5.1-11.5-11.5c0-6.4,5.1-11.5,11.5-11.5s11.5,5.1,11.5,11.5C211.5,150.3,206.4,155.4,200,155.4z"/>
<g>
	<line class="st1" x1="251.3" y1="121.7" x2="251.5" y2="72.9"/>
	<path class="st1" d="M251.3,123.7C251.3,123.7,251.3,123.7,251.3,123.7c-1.1,0-2-0.9-2-2l0.2-48.8c0-1.1,0.9-2,2-2c0,0,0,0,0,0
		c1.1,0,2,0.9,2,2l-0.2,48.8C253.3,122.8,252.4,123.7,251.3,123.7z"/>
</g>
<g>
	<line class="st1" x1="279.5" y1="122.4" x2="279.5" y2="87.4"/>
	<path class="st1" d="M279.5,124.4C279.5,124.4,279.5,124.4,279.5,124.4c-1.1,0-2-0.9-2-2l0-35c0-1.1,0.9-2,2-2c0,0,0,0,0,0
		c1.1,0,2,0.9,2,2l0,35C281.5,123.5,280.6,124.4,279.5,124.4z"/>
</g>
<g>
	<line class="st1" x1="279.5" y1="16.4" x2="279.5" y2="61.4"/>
	<path class="st1" d="M279.5,63.4c-1.1,0-2-0.9-2-2v-45c0-1.1,0.9-2,2-2s2,0.9,2,2v45C281.5,62.5,280.6,63.4,279.5,63.4z"/>
</g>
<g>
	<line class="st1" x1="251.4" y1="17.2" x2="251.5" y2="48.9"/>
	<path class="st1" d="M251.5,50.9c-1.1,0-2-0.9-2-2l-0.1-31.8c0-1.1,0.9-2,2-2c0,0,0,0,0,0c1.1,0,2,0.9,2,2l0.1,31.8
		C253.5,50,252.6,50.9,251.5,50.9C251.5,50.9,251.5,50.9,251.5,50.9z"/>
</g>
<g>
	<line class="st1" x1="221.5" y1="25.8" x2="221.5" y2="69.4"/>
	<path class="st1" d="M221.5,71.4c-1.1,0-2-0.9-2-2V25.8c0-1.1,0.9-2,2-2s2,0.9,2,2v43.7C223.5,70.5,222.6,71.4,221.5,71.4z"/>
</g>
<g>
	<line class="st1" x1="221.5" y1="113.1" x2="221.5" y2="87.4"/>
	<path class="st1" d="M221.5,115.1c-1.1,0-2-0.9-2-2V87.4c0-1.1,0.9-2,2-2s2,0.9,2,2v25.7C223.5,114.2,222.6,115.1,221.5,115.1z"/>
</g>
<g>
	<line class="st1" x1="91.7" y1="17.2" x2="91.5" y2="65.9"/>
	<path class="st1" d="M91.5,67.9C91.4,67.9,91.4,67.9,91.5,67.9c-1.1,0-2-0.9-2-2l0.2-48.8c0-1.1,0.9-2,2-2c0,0,0,0,0,0
		c1.1,0,2,0.9,2,2l-0.2,48.8C93.4,67,92.6,67.9,91.5,67.9z"/>
</g>
<g>
	<line class="st1" x1="63.5" y1="16.4" x2="63.5" y2="51.4"/>
	<path class="st1" d="M63.5,53.4C63.5,53.4,63.5,53.4,63.5,53.4c-1.1,0-2-0.9-2-2l0-35c0-1.1,0.9-2,2-2c0,0,0,0,0,0c1.1,0,2,0.9,2,2
		l0,35C65.5,52.5,64.6,53.4,63.5,53.4z"/>
</g>
<g>
	<line class="st1" x1="63.5" y1="122.4" x2="63.5" y2="77.4"/>
	<path class="st1" d="M63.5,124.4c-1.1,0-2-0.9-2-2v-45c0-1.1,0.9-2,2-2s2,0.9,2,2v45C65.5,123.5,64.6,124.4,63.5,124.4z"/>
</g>
<g>
	<line class="st1" x1="91.6" y1="121.7" x2="91.5" y2="89.9"/>
	<path class="st1" d="M91.6,123.7c-1.1,0-2-0.9-2-2l-0.1-31.8c0-1.1,0.9-2,2-2c0,0,0,0,0,0c1.1,0,2,0.9,2,2l0.1,31.8
		C93.6,122.8,92.7,123.7,91.6,123.7C91.6,123.7,91.6,123.7,91.6,123.7z"/>
</g>
<g>
	<line class="st1" x1="121.5" y1="113.1" x2="121.5" y2="71.4"/>
	<path class="st1" d="M121.5,115.1c-1.1,0-2-0.9-2-2V71.4c0-1.1,0.9-2,2-2s2,0.9,2,2v41.7C123.5,114.2,122.6,115.1,121.5,115.1z"/>
</g>
<g>
	<line class="st1" x1="121.5" y1="25.8" x2="121.5" y2="51.4"/>
	<path class="st1" d="M121.5,53.4c-1.1,0-2-0.9-2-2V25.8c0-1.1,0.9-2,2-2s2,0.9,2,2v25.7C123.5,52.5,122.6,53.4,121.5,53.4z"/>
</g>
<path class="st2" d="M78.5,125.9h-58c-1.9,0-3.5-1.6-3.5-3.5s1.6-3.5,3.5-3.5h58c40.9,0,58.1-18,79.9-40.8
	c3.5-3.6,7.1-7.4,10.9-11.2c3.8-3.8,7.3-7.5,10.8-11.1c22-23,41.1-42.9,84.9-42.9h58c1.9,0,3.5,1.6,3.5,3.5s-1.6,3.5-3.5,3.5h-58
	c-40.9,0-58.1,18-79.9,40.8c-3.5,3.6-7.1,7.4-10.9,11.2c-3.8,3.8-7.3,7.5-10.8,11.1C141.4,106,122.4,125.9,78.5,125.9z"/>
<path class="st2" d="M323,125.9h-58c-43.9,0-62.9-19.9-84.9-42.9c-3.5-3.6-7-7.3-10.8-11.1c-3.8-3.8-7.4-7.6-10.9-11.2
	c-21.8-22.8-39-40.8-79.9-40.8h-58c-1.9,0-3.5-1.6-3.5-3.5s1.6-3.5,3.5-3.5h58c43.9,0,62.9,19.9,84.9,42.9c3.5,3.6,7,7.3,10.8,11.1
	c3.8,3.8,7.4,7.6,10.9,11.2c21.8,22.8,39,40.8,79.9,40.8h58c1.9,0,3.5,1.6,3.5,3.5S324.9,125.9,323,125.9z"/>
<path class="st0" d="M187,129.9"/>
<path class="st0" d="M136,135.4l25-25l52.5-52.5c0,0-3.5,19.5-26.5,42.5s-29.5,29.5-29.5,29.5l-2.1,2.1"/>
<circle class="st0" cx="172" cy="107.9" r="2.5"/>
<path class="st1" d="M144,126.4c-9.7,0-17.5,7.8-17.5,17.5s7.8,17.5,17.5,17.5s17.5-7.8,17.5-17.5S153.7,126.4,144,126.4z
	 M144,155.4c-6.4,0-11.5-5.1-11.5-11.5c0-6.4,5.1-11.5,11.5-11.5s11.5,5.1,11.5,11.5C155.5,150.3,150.4,155.4,144,155.4z"/>
</svg>
