<svg xmlns="http://www.w3.org/2000/svg" viewBox="0 0 141.47 168"><defs><style>.cls-1,.cls-4{fill:#fff;}.cls-1,.cls-2{stroke:#ff6f90;stroke-miterlimit:10;}.cls-2{fill:none;}.cls-3{fill:#ff6f90;}</style></defs><title>danbot</title><g id="Layer_4" data-name="Layer 4"><path class="cls-1" d="M12.28,21.43C10.16,19,12,10.63,12,10.63l5.33-3.31.39,16Z" transform="translate(-6.82 -6.33)"/><path class="cls-1" d="M17.74,23.33s-4.79-5.39-6.64,0C-2.65,63.52,23.79,76.78,46.93,76.78c4.53,0,2.3-12.75-.59-12.73-15.15.09-31-11.11-17.25-36.49" transform="translate(-6.82 -6.33)"/><path class="cls-1" d="M35.54,14.66c-1.82,6.44-4.84,9.76-9.16,7.84S20.8,16.41,23.67,9.92L18.24,7S9.42,22.24,23.4,26.88,41,17.59,41,17.59Z" transform="translate(-6.82 -6.33)"/><path class="cls-2" d="M43.45,76.73c-4.7-4.69-3-9.7,0-12.66" transform="translate(-6.82 -6.33)"/><path class="cls-2" d="M36.63,76c-4.8-4.8-3.21-10.94,1.81-12.84" transform="translate(-6.82 -6.33)"/><path class="cls-2" d="M28.77,74c-3.72-3.71-3.87-10.41,2.71-13.91" transform="translate(-6.82 -6.33)"/><path class="cls-2" d="M27.13,55.85c-5.56,1.72-8.77,7.27-8.77,12.41" transform="translate(-6.82 -6.33)"/><path class="cls-2" d="M25.2,52.41c-7.67-1.57-12,4-13.37,8.47" transform="translate(-6.82 -6.33)"/><path class="cls-2" d="M23.83,40.74c-5.29-2.36-11.09-5.41-16.1-3.38" transform="translate(-6.82 -6.33)"/><path class="cls-2" d="M26.2,33.74c-3.72-3.72-13.4-6-16.81-4.8" transform="translate(-6.82 -6.33)"/><path class="cls-2" d="M23.83,46.89c-4.52-1.15-13.48-.25-16.1,2.38" transform="translate(-6.82 -6.33)"/></g><g id="Layer_1" data-name="Layer 1"><path class="cls-1" d="M139.91,137.53l5.53-2.08s5.29-10.58,0-15.87h-6.78Z" transform="translate(-6.82 -6.33)"/><path class="cls-3" d="M49.71,96.84C42.85,57.25,42.31,21.74,89,18.76c29.37-1.88,40.34,28.67,28.29,69.18-10.57,35.55-19.06,63.88-37.14,64.86C63.12,153.72,56.33,135,49.71,96.84Z" transform="translate(-6.82 -6.33)"/><path class="cls-4" d="M104.19,70.65c9.18-14,6-35.17-21.45-34.09-21.13.82-27.27,6.35-24.46,24.24C60.61,75.57,71.71,77.11,79.07,78S99.19,78.26,104.19,70.65Z" transform="translate(-6.82 -6.33)"/><path class="cls-1" d="M127.46,116.41c6.34-18,2.11-27.5-8.47-32.79-9.31-4.66-7.4-9.52,1.66-9.65,0,0,15.27-3,22.67,11.76s2.12,33.85,2.12,33.85c-2.12,5.29-6.78,0-6.78,0" transform="translate(-6.82 -6.33)"/><path class="cls-1" d="M122.17,129.1c2.11-6.35,5.29-9.52,9.52-7.4S137,128,133.8,134.39l5.29,3.17s9.52-14.81-4.23-20.09-18,8.46-18,8.46Z" transform="translate(-6.82 -6.33)"/><path class="cls-2" d="M85.65,63.18s0,4.29-3.68,4.29-3.68-4.29-3.68-4.29" transform="translate(-6.82 -6.33)"/><ellipse class="cls-3" cx="73.08" cy="165.02" rx="32.97" ry="2.99"/><path class="cls-2" d="M146.88,111.4C139,114.65,129.59,109,129.59,109" transform="translate(-6.82 -6.33)"/><path class="cls-2" d="M147.27,103c-11.48,3.31-17.2,0-17.2,0" transform="translate(-6.82 -6.33)"/><path class="cls-2" d="M146.06,93.47c-4.22,4.23-15.91,4.35-15.91,4.35" transform="translate(-6.82 -6.33)"/><path class="cls-2" d="M120.65,74c-4.3,4.31-1.66,9.65-1.66,9.65" transform="translate(-6.82 -6.33)"/><path class="cls-2" d="M130.15,74.54c-6.89,3.24-7.6,7.7-7.6,11.19" transform="translate(-6.82 -6.33)"/><path class="cls-2" d="M138.24,78.94c-6.56,3.21-9.67,8-11.89,10.27" transform="translate(-6.82 -6.33)"/><path class="cls-2" d="M143.32,85.73c-5.92,2.15-14.39,7.74-14.39,7.74" transform="translate(-6.82 -6.33)"/></g><g id="Layer_2" data-name="Layer 2"><line class="cls-2" x1="93.66" y1="54.55" x2="87.32" y2="54.55"/><line class="cls-2" x1="61.93" y1="46.08" x2="55.58" y2="46.08"/></g><g id="Layer_3" data-name="Layer 3"><circle class="cls-3" cx="90.49" cy="54.55" r="3.17"/><circle class="cls-3" cx="58.76" cy="46.08" r="3.17"/></g></svg>