<?xml version="1.0" encoding="utf-8"?>
<!-- Generator: Adobe Illustrator 22.0.1, SVG Export Plug-In . SVG Version: 6.00 Build 0)  -->
<svg version="1.1" id="Layer_1" xmlns="http://www.w3.org/2000/svg" xmlns:xlink="http://www.w3.org/1999/xlink" x="0px" y="0px"
	 viewBox="0 0 339 218.8" style="enable-background:new 0 0 339 218.8;" xml:space="preserve">
<style type="text/css">
	.st0{opacity:0.4;fill:#FFF4FD;stroke:#FFFFFF;stroke-width:8;stroke-linecap:round;stroke-linejoin:round;stroke-miterlimit:10;}
	.st1{fill:#042B57;}
	.st2{fill:#FFFFFF;stroke:#042B57;stroke-miterlimit:10;}
	.st3{fill:none;stroke:#042B57;stroke-miterlimit:10;}
	.st4{fill:#FFFFFF;}
	.st5{fill:#FFFFFF;stroke:#FF6F90;stroke-miterlimit:10;}
	.st6{fill:none;stroke:#FF6F90;stroke-miterlimit:10;}
	.st7{fill:#FF6F90;}
	.st8{fill:#93F4FD;stroke:#042B57;stroke-linecap:round;stroke-linejoin:round;stroke-miterlimit:10;}
	.st9{fill:#FFEDBF;stroke:#042B57;stroke-linecap:round;stroke-linejoin:round;stroke-miterlimit:10;}
	.st10{fill:#F1BF98;stroke:#042B57;stroke-linecap:round;stroke-linejoin:round;stroke-miterlimit:10;}
	.st11{opacity:0.69;fill:none;stroke:#FFFFFF;stroke-width:3;stroke-linecap:round;stroke-linejoin:round;stroke-miterlimit:10;}
</style>
<path class="st0" d="M197,10.8c-6.1-0.3-12.2-0.6-18.3-0.7V8.4c0-1.3-1.6-2.3-3.6-2.4c-3.5-0.1-7.7-0.2-11.2-0.1
	c-2,0.1-3.6,1.1-3.6,2.4v0.1v1.7c-6.1,0.1-12.2,0.3-18.3,0.7c-0.3,0-0.5,0.2-0.5,0.3V38v11.5v15.4c0,0.2,0.2,0.3,0.5,0.3l3.6,0.2
	c15.8,0.9,31.8,0.9,47.6,0l3.6-0.2c0.3,0,0.5-0.2,0.5-0.3V49.8V38V11.1C197.5,10.9,197.3,10.8,197,10.8z"/>
<ellipse class="st1" cx="83.8" cy="213.1" rx="33.4" ry="3"/>
<g>
	<path class="st2" d="M161.1,74.7c2.8-1.6,3.6-10.3,3.6-10.3l-3.9-4.7l-5.6,15.1L161.1,74.7z"/>
	<path class="st2" d="M155.3,74.8c0,0,6.3-3.7,6.4,2.1c0.7,43.1-29,47.6-51.3,40.3c-4.4-1.4,1.8-13,4.6-12.1
		c14.6,4.8,33.4-1,28.1-29.8"/>
	<path class="st2" d="M140.8,60.9c-0.3,6.8,1.6,10.9,6.4,10.4c4.8-0.5,7.3-4.1,6.6-11.3l6.5-0.8c0,0,3.3,17.2-11.6,17.3
		c-14.9,0.1-14-14.5-14-14.5L140.8,60.9z"/>
	<path class="st3" d="M113.7,118.3c6-3.1,5.9-8.4,4-12.2"/>
	<path class="st3" d="M120.5,119.7c6.1-3.1,6.5-9.5,2.3-13"/>
	<path class="st3" d="M128.7,120.2c4.7-2.4,7-8.8,1.7-14.3"/>
	<path class="st3" d="M136,103.3c4.8,3.4,6.2,9.8,4.6,14.7"/>
	<path class="st3" d="M138.9,100.6c7.9,0.9,10.3,7.6,10.2,12.4"/>
	<path class="st3" d="M143.9,89.7c5.8-0.6,12.4-1.7,16.6,1.8"/>
	<path class="st3" d="M143.8,82.2c4.8-2.4,14.8-1.6,17.7,0.6"/>
	<path class="st3" d="M142,95.7c4.7,0.3,13.1,4,14.8,7.3"/>
</g>
<path class="st1" d="M114.4,137.5c7-40.1,7.5-76.2-39.9-79.2c-29.8-1.9-40.9,29.1-28.7,70.2c10.7,36.1,19.3,64.8,37.7,65.8
	C100.8,195.2,107.7,176.3,114.4,137.5z"/>
<path class="st4" d="M59.2,111c-9.3-14.2-6.1-35.7,21.7-34.6c21.4,0.8,27.7,6.4,24.8,24.6c-2.4,15-13.6,16.5-21.1,17.4
	C77.2,119.3,64.3,118.7,59.2,111z"/>
<g>
	<path class="st2" d="M8.6,176.2l-4.9-3.5c0,0-2.4-11.7,4.1-15.6l6.6,1.8L8.6,176.2z"/>
	<path class="st2" d="M26.3,158.7c-1.6-19.3,5.1-27.5,16.8-30c10.3-2.2,9.7-7.4,0.9-9.9c0,0-14.2-6.9-25.3,5.7S7.9,157.1,7.9,157.1
		c0.7,5.7,6.6,1.8,6.6,1.8"/>
	<path class="st2" d="M28.2,172.5c-0.4-6.8-2.7-10.7-7.4-9.7c-4.7,1-6.8,4.9-5.4,11.9l-6,1.7c0,0-5.5-17,9.4-18.6s15.4,13,15.4,13
		L28.2,172.5z"/>
	<path class="st3" d="M8.6,148.7c6.9,5.2,17.6,2.1,17.6,2.1"/>
	<path class="st3" d="M10.4,140.4c10.4,6.2,16.9,4.5,16.9,4.5"/>
	<path class="st3" d="M14,131.4c3,5.2,14.5,8.4,14.5,8.4"/>
	<path class="st3" d="M44,118.8c3.1,5.3-0.9,9.9-0.9,9.9"/>
	<path class="st3" d="M34.5,116.9c5.9,5,5.5,9.5,4.5,12.9"/>
	<path class="st3" d="M25.5,119.2c5.6,4.9,7.4,10.4,9,13.2"/>
	<path class="st3" d="M18.7,124.5c5.2,3.6,12.1,11.3,12.1,11.3"/>
</g>
<line class="st3" x1="63" y1="101.1" x2="69.4" y2="101.1"/>
<line class="st3" x1="95.1" y1="92.5" x2="101.6" y2="92.5"/>
<circle class="st1" cx="66.2" cy="101.1" r="3.2"/>
<circle class="st1" cx="98.4" cy="92.5" r="3.2"/>
<path class="st1" d="M88.5,99.9H81c0,0,1.3,3.5,3.8,3.5C87.3,103.4,88.5,99.9,88.5,99.9z"/>
<g>
	<path class="st5" d="M174.6,79.6c-2.9-1.3-4.7-9.9-4.7-9.9l3.4-5l7.1,14.4L174.6,79.6z"/>
	<path class="st5" d="M180.4,79.1c0,0-6.7-3-6.1,2.7c3.9,42.8,33.8,44.1,55.2,34.6c4.2-1.9-3.1-12.7-5.8-11.5
		c-14,6.3-33.2,2.5-31-26.6"/>
	<path class="st5" d="M193.3,63.7c1,6.7-0.4,11-5.2,11c-4.8,0-7.7-3.3-7.7-10.5l-6.6-0.1c0,0-1.5,17.4,13.3,15.9
		c14.8-1.5,12.4-15.8,12.4-15.8L193.3,63.7z"/>
	<path class="st6" d="M226.2,117.8c-6.3-2.4-6.7-7.7-5.2-11.7"/>
	<path class="st6" d="M219.6,120c-6.4-2.5-7.5-8.8-3.6-12.6"/>
	<path class="st6" d="M211.5,121.3c-5-1.9-7.9-8-3.2-14"/>
	<path class="st6" d="M202.5,105.2c-4.4,3.9-5.1,10.3-3,15.1"/>
	<path class="st6" d="M199.3,102.9c-7.7,1.7-9.4,8.7-8.9,13.3"/>
	<path class="st6" d="M193.2,92.7c-5.9,0-12.5-0.4-16.3,3.5"/>
	<path class="st6" d="M192.5,85.2c-5-1.9-14.9,0-17.5,2.5"/>
	<path class="st6" d="M195.8,98.3c-4.6,0.8-12.5,5.3-13.9,8.8"/>
</g>
<path class="st7" d="M220.5,137.4c-6.9-40.1-7.5-76,39.8-79c29.7-1.9,40.8,29,28.6,70c-10.7,36-19.3,64.6-37.6,65.6
	C234,194.9,227.2,176,220.5,137.4z"/>
<path class="st4" d="M275.6,110.9c9.3-14.1,6.1-35.6-21.7-34.5c-21.4,0.8-27.6,6.4-24.7,24.5c2.4,15,13.6,16.5,21,17.4
	C257.6,119.2,270.5,118.6,275.6,110.9z"/>
<path class="st7" d="M256.8,102.3c0,0,0,4.3-3.7,4.3c-3.7,0-3.7-4.3-3.7-4.3H256.8z"/>
<ellipse class="st7" cx="251" cy="212.8" rx="33.4" ry="3"/>
<line class="st6" x1="271.8" y1="101" x2="265.4" y2="101"/>
<line class="st6" x1="239.7" y1="92.4" x2="233.3" y2="92.4"/>
<circle class="st7" cx="268.6" cy="101" r="3.2"/>
<circle class="st7" cx="236.5" cy="92.4" r="3.2"/>
<g>
	<path class="st5" d="M329.9,173.8l4.7-4.1c0,0,1.3-12.5-5.9-15.7l-6.7,2.5L329.9,173.8z"/>
	<path class="st5" d="M309.7,157.5c-0.4-20.2-8.1-28.1-20.6-29.4c-11-1.2-10.9-6.7-1.9-10.2c0,0,14-8.7,26.8,3.2
		c12.9,11.9,14.7,32.8,14.7,32.8c-0.1,6-6.7,2.5-6.7,2.5"/>
	<path class="st5" d="M309.1,172.1c-0.3-7.1,1.7-11.4,6.7-10.9s7.6,4.3,6.8,11.8l6.4,1.2c0,0,3.9-18.2-11.7-18.3
		c-15.6-0.1-14.7,15.1-14.7,15.1L309.1,172.1z"/>
	<path class="st6" d="M327.1,145.3c-6.6,6.1-18.1,4-18.1,4"/>
	<path class="st6" d="M324.3,136.9c-10.1,7.6-17.1,6.4-17.1,6.4"/>
	<path class="st6" d="M319.6,127.9c-2.6,5.8-14.2,10.2-14.2,10.2"/>
	<path class="st6" d="M287.1,118c-2.7,5.9,1.9,10.2,1.9,10.2"/>
	<path class="st6" d="M296.7,115c-5.6,5.8-4.7,10.5-3.4,13.9"/>
	<path class="st6" d="M306.4,116.4c-5.3,5.6-6.6,11.6-8,14.6"/>
	<path class="st6" d="M314,121.2c-5.1,4.3-11.4,13-11.4,13"/>
</g>
<g>
	<path class="st8" d="M141.6,49.5v15.4c0,0.2,0.2,0.3,0.5,0.3l3.6,0.2c15.8,0.9,31.8,0.9,47.6,0l3.6-0.2c0.3,0,0.5-0.2,0.5-0.3V49.8
		C182.9,51.9,156.7,51.5,141.6,49.5z"/>
	<path class="st9" d="M197.5,49.8V38V11.1c0-0.2-0.2-0.3-0.5-0.3c-18.3-1-36.6-1-54.9,0c-0.3,0-0.5,0.2-0.5,0.3V38v11.5
		C156.7,51.5,182.9,51.9,197.5,49.8z"/>
	<path class="st9" d="M149.1,13.9c8.3,2.1,33.4,2.6,40.9,0"/>
	<path class="st9" d="M164,5.9c-2,0.1-3.6,1.1-3.6,2.4v0.1v5.1c0,0,0.1,0.1,0.2,0.1c6,0.2,12,0.2,18,0c0.1,0,0.2,0,0.2-0.1V8.4v0
		c0-1.3-1.6-2.3-3.6-2.4C171.6,5.9,167.4,5.8,164,5.9z"/>
	<line class="st10" x1="169.5" y1="43.9" x2="169.5" y2="49.6"/>
	<line class="st10" x1="172.4" y1="46.8" x2="166.7" y2="46.8"/>
	<line class="st10" x1="172.4" y1="20.1" x2="166.7" y2="20.1"/>
	<polygon class="st8" points="168.1,25.3 173.9,25.3 169.2,33.9 173.3,32.5 167.8,41.9 169.2,36.3 165.9,37.2 	"/>
</g>
<line class="st11" x1="147.2" y1="58.9" x2="147.2" y2="35.2"/>
<line class="st11" x1="192.2" y1="34.4" x2="192.2" y2="20.5"/>
</svg>
